HIERARCHY
ROOT Hips
{
 OFFSET 0.000000 0.000000 0.000000
 CHANNELS 6 Xposition Yposition Zposition Yrotation Xrotation Zrotation
 JOINT Chest
 {
  OFFSET 0.000000 9.585900 0.002600
  CHANNELS 3 Yrotation Xrotation Zrotation
  JOINT Chest2
  {
   OFFSET 0.000000 9.601200 -0.005300
   CHANNELS 3 Yrotation Xrotation Zrotation
   JOINT Chest3
   {
    OFFSET 0.000000 9.561800 0.000000
    CHANNELS 3 Yrotation Xrotation Zrotation
    JOINT Chest4
    {
     OFFSET 0.000000 9.552100 0.000000
     CHANNELS 3 Yrotation Xrotation Zrotation
     JOINT Neck
     {
      OFFSET 0.000000 14.453000 0.000000
      CHANNELS 3 Yrotation Xrotation Zrotation
      JOINT Head
      {
       OFFSET 0.000000 8.936500 -0.011300
       CHANNELS 3 Yrotation Xrotation Zrotation
       End Site
       {
        OFFSET 0.000000 17.073600 -0.006000
       }
      }
     }
     JOINT RightCollar
     {
      OFFSET -2.921100 9.558500 0.000000
      CHANNELS 3 Yrotation Xrotation Zrotation
      JOINT RightShoulder
      {
       OFFSET -13.519700 0.000000 0.000000
       CHANNELS 3 Yrotation Xrotation Zrotation
       JOINT RightElbow
       {
        OFFSET 0.000000 -29.696600 0.000000
        CHANNELS 3 Yrotation Xrotation Zrotation
        JOINT RightWrist
        {
         OFFSET 0.000000 -24.004700 0.000000
         CHANNELS 3 Yrotation Xrotation Zrotation
         End Site
         {
          OFFSET 0.000000 -17.728500 0.000000
         }
        }
       }
      }
     }
     JOINT LeftCollar
     {
      OFFSET 2.921100 9.558500 0.000000
      CHANNELS 3 Yrotation Xrotation Zrotation
      JOINT LeftShoulder
      {
       OFFSET 13.519700 0.000000 0.000000
       CHANNELS 3 Yrotation Xrotation Zrotation
       JOINT LeftElbow
       {
        OFFSET 0.000000 -29.696600 0.000000
        CHANNELS 3 Yrotation Xrotation Zrotation
        JOINT LeftWrist
        {
         OFFSET 0.000000 -24.004700 0.000000
         CHANNELS 3 Yrotation Xrotation Zrotation
         End Site
         {
          OFFSET 0.000000 -17.728500 0.000000
         }
        }
       }
      }
     }
    }
   }
  }
 }
 JOINT RightHip
 {
  OFFSET -7.771700 -0.012900 -0.001300
  CHANNELS 3 Yrotation Xrotation Zrotation
  JOINT RightKnee
  {
   OFFSET 0.000000 -40.869800 0.001200
   CHANNELS 3 Yrotation Xrotation Zrotation
   JOINT RightAnkle
   {
    OFFSET 0.000000 -39.717900 0.002100
    CHANNELS 3 Yrotation Xrotation Zrotation
    JOINT RightToe
    {
     OFFSET 0.000000 -4.965400 11.033500
     CHANNELS 3 Yrotation Xrotation Zrotation
     End Site
     {
      OFFSET 0.000000 -1.423100 5.872300
     }
    }
   }
  }
 }
 JOINT LeftHip
 {
  OFFSET 7.771700 -0.012900 -0.001300
  CHANNELS 3 Yrotation Xrotation Zrotation
  JOINT LeftKnee
  {
   OFFSET 0.000000 -40.869800 0.001200
   CHANNELS 3 Yrotation Xrotation Zrotation
   JOINT LeftAnkle
   {
    OFFSET 0.000000 -39.717900 0.002100
    CHANNELS 3 Yrotation Xrotation Zrotation
    JOINT LeftToe
    {
     OFFSET 0.000000 -4.965400 11.033500
     CHANNELS 3 Yrotation Xrotation Zrotation
     End Site
     {
      OFFSET 0.000000 -1.423100 5.872300
     }
    }
   }
  }
 }
}
MOTION
Frames: 16
Frame Time: 0.008333
0.000000 85.388000 0.000000 0.000000 -5.767877 0.000000 0.000000 11.653817 0.000000 0.000000 -5.885947 0.000000 0.000000 -0.000000 0.000000 0.000000 -0.000000 0.000000 0.000000 12.528835 0.000000 0.000000 0.711642 0.000000 0.000000 -0.000000 0.000000 0.000000 0.000000 -90.000000 0.000000 -2.309062 0.000000 0.000000 2.309062 0.000000 0.000000 -0.000000 0.000000 0.000000 -0.000000 90.000000 0.000000 -2.309062 0.000000 0.000000 2.309062 0.000000 0.000000 8.520406 0.000000 0.000000 1.905762 0.000000 -0.000000 -4.658285 0.000000 0.000000 -0.000000 0.000000 0.000000 8.520406 0.000000 0.000000 1.905762 0.000000 -0.000000 -4.658285 0.000000 0.000000 -0.000000 0.000000
-209.129938 57.841310 130.101443 178.233389 -28.458677 -1.239322 1.041321 21.932404 3.001058 0.063187 3.022390 0.371663 0.114338 4.901752 0.604298 0.725782 18.575541 2.413793 -1.771166 9.392582 0.186299 -3.540936 -18.324687 1.193493 3.126094 0.007844 -2.030505 10.632795 -17.073824 -20.306786 153.796559 -74.304224 -122.460286 15.680654 -13.715376 -43.510006 -8.351248 -4.647205 -1.644672 -2.665674 -13.108711 1.980143 -119.286290 -69.243029 90.523781 -13.146062 -9.514664 22.233651 3.692913 -47.300607 -0.766051 -6.593269 70.426672 -12.786952 -10.110828 24.440203 -8.170099 -2.589641 -17.361273 16.869902 -7.904959 -45.137715 -0.105581 34.240749 69.486926 37.979794 -13.396799 2.626224 -5.877696 0.001972 0.005517 0.003697
-209.131310 57.841859 130.101187 178.244791 -28.467473 -1.251190 1.035770 21.933005 3.007652 0.067589 3.001197 0.366606 0.113525 4.897268 0.603853 0.722823 18.568380 2.412764 -1.871268 9.343107 0.138268 -3.715309 -18.415159 1.148606 3.083102 0.014570 -2.033796 10.582149 -17.049637 -20.136119 154.207922 -74.456735 -122.816120 15.603326 -13.617468 -43.409971 -8.320465 -4.629933 -1.582334 -2.648815 -12.961425 1.800506 -119.425805 -69.391765 90.707000 -13.093486 -9.382858 22.128359 3.645552 -47.290965 -0.761615 -6.584647 70.427580 -12.757612 -10.102707 24.421511 -8.197125 -2.583299 -17.353768 16.861900 -7.914791 -45.128490 -0.107032 34.247712 69.480242 37.996109 -13.393528 2.629793 -5.888286 -0.001990 0.004034 0.007810
-209.134208 57.842295 130.101219 178.256896 -28.471032 -1.257387 1.031944 21.910657 3.004423 0.067308 2.993464 0.364383 0.109475 4.915001 0.609124 0.719182 18.545201 2.407489 -1.975145 9.292748 0.088029 -3.896060 -18.507383 1.101211 3.014209 -0.036996 -2.049688 10.560108 -16.942748 -19.957964 154.855652 -74.675048 -123.423931 15.498910 -13.491286 -43.279199 -8.300909 -4.601166 -1.547802 -2.616356 -12.798898 1.617835 -119.498019 -69.652517 90.799124 -13.007407 -9.205735 22.012747 3.617516 -47.285679 -0.763803 -6.574493 70.428016 -12.739946 -10.097824 24.413249 -8.211389 -2.578265 -17.352304 16.860201 -7.919765 -45.126300 -0.115454 34.244027 69.474413 37.998298 -13.393429 2.638747 -5.891171 -0.002839 -0.000236 0.007712
-209.137408 57.843608 130.099888 178.272729 -28.479148 -1.265761 1.028417 21.874029 2.995039 0.061317 3.012427 0.370700 0.106843 4.925473 0.613630 0.716649 18.540760 2.406716 -2.084622 9.223672 0.030603 -4.082610 -18.599811 1.051125 2.983021 -0.076962 -2.059936 10.501905 -16.840774 -19.800121 155.746377 -74.976771 -124.281865 15.356482 -13.343699 -43.111380 -8.276063 -4.591020 -1.513145 -2.574104 -12.606548 1.398347 -119.492531 -70.061879 90.785105 -12.882606 -8.978345 21.883611 3.583170 -47.274886 -0.763919 -6.565852 70.428145 -12.723073 -10.114729 24.406030 -8.214828 -2.600197 -17.341364 16.851751 -7.921735 -45.119941 -0.132893 34.251688 69.470113 38.018578 -13.390571 2.643311 -5.892230 -0.006411 -0.004932 0.004047
-209.143376 57.846090 130.096611 178.294842 -28.494004 -1.261901 1.008169 21.869236 2.973480 0.058940 3.019985 0.374456 0.107208 4.906179 0.609691 0.713985 18.552743 2.410902 -2.197585 9.157094 -0.030753 -4.275404 -18.695317 0.998478 2.955527 -0.123043 -2.068344 10.422753 -16.709130 -19.617518 156.875529 -75.356834 -125.369378 15.165769 -13.175058 -42.909299 -8.219230 -4.581170 -1.435589 -2.530646 -12.382598 1.096668 -119.380700 -70.652941 90.633153 -12.710209 -8.709977 21.743710 3.483843 -47.255486 -0.777034 -6.480369 70.433125 -12.635685 -10.118597 24.377428 -8.214886 -2.576976 -17.333160 16.795457 -7.897181 -45.103383 -0.187052 34.245009 69.457935 38.031840 -13.379328 2.649692 -5.889026 -0.008784 -0.008999 -0.000206
-209.145637 57.849665 130.092120 178.320562 -28.512215 -1.282568 0.990961 21.870839 2.976983 0.059743 3.025291 0.376160 0.108074 4.869137 0.596389 0.713637 18.567159 2.417035 -2.314092 9.107477 -0.085931 -4.473643 -18.797025 0.941839 2.927746 -0.155147 -2.065867 10.321680 -16.556250 -19.407491 158.330069 -75.817592 -126.765038 14.919889 -12.973929 -42.685081 -8.147641 -4.557016 -1.347885 -2.471395 -12.129519 0.756131 -119.113361 -71.455218 90.292611 -12.487401 -8.410213 21.602109 3.391386 -47.234944 -0.774317 -6.578929 70.436983 -12.683466 -10.079541 24.331123 -8.272567 -2.567983 -17.317521 16.781395 -7.913743 -45.081851 -0.189490 34.247432 69.453408 38.041338 -13.381326 2.648885 -5.886149 -0.008993 -0.009027 -0.002409
-209.149125 57.853930 130.086925 178.335757 -28.529775 -1.290880 0.978157 21.880917 2.975803 0.059091 2.998994 0.368668 0.108692 4.892925 0.603096 0.709579 18.549796 2.408306 -2.432325 9.053059 -0.142910 -4.676013 -18.906366 0.879183 2.900884 -0.187090 -2.066141 10.201003 -16.387447 -19.170667 160.206759 -76.359926 -128.565581 14.618637 -12.735115 -42.449372 -7.992390 -4.539705 -1.180587 -2.434970 -11.854565 0.293857 -118.652293 -72.486110 89.715849 -12.220015 -8.084024 21.464191 3.310917 -47.213999 -0.779780 -6.612400 70.438401 -12.685132 -10.029906 24.299394 -8.309690 -2.566327 -17.309422 16.764287 -7.899700 -45.059356 -0.214330 34.236615 69.447065 38.048104 -13.379871 2.650412 -5.882498 -0.010198 -0.011509 -0.005163
-209.153708 57.857866 130.082876 178.347810 -28.535105 -1.290794 0.963673 21.879175 2.967369 0.059338 2.999102 0.369573 0.108023 4.890766 0.601301 0.704964 18.536653 2.401753 -2.554125 8.993444 -0.200954 -4.879336 -19.024248 0.808965 2.876597 -0.215970 -2.071816 10.061045 -16.204501 -18.905796 162.573268 -76.973651 -130.841850 14.263155 -12.458399 -42.205419 -7.863273 -4.523599 -1.059747 -2.335566 -11.560823 -0.151397 -117.949879 -73.742998 88.842930 -11.913322 -7.738885 21.325492 3.222694 -47.205378 -0.792097 -6.570558 70.439762 -12.626038 -9.982534 24.276006 -8.342615 -2.538483 -17.314306 16.737158 -7.877729 -45.054715 -0.245431 34.231249 69.444770 38.060008 -13.386944 2.655916 -5.881643 -0.016558 -0.018969 -0.004179
-209.157338 57.862035 130.079028 178.357514 -28.536611 -1.294147 0.953580 21.869012 2.966966 0.058961 3.004558 0.368740 0.098800 4.869821 0.603585 0.685791 18.531823 2.400548 -2.664071 8.941462 -0.275817 -5.083104 -19.151456 0.731271 2.872840 -0.226213 -2.097287 9.907378 -16.010892 -18.613929 165.465086 -77.634843 -133.631808 13.851469 -12.150550 -41.956879 -7.729634 -4.496869 -0.985636 -2.180195 -11.250588 -0.594135 -116.892392 -75.206575 87.553785 -11.567788 -7.380657 21.192370 3.181563 -47.200266 -0.798440 -6.564123 70.439101 -12.607841 -9.966796 24.268346 -8.364149 -2.576640 -17.305613 16.744911 -7.856484 -45.051328 -0.266518 34.228368 69.441291 38.069087 -13.390647 2.657686 -5.876216 -0.014554 -0.021787 -0.003093
-209.161244 57.866754 130.074524 178.358478 -28.541488 -1.289799 0.948069 21.862729 2.961369 0.056839 3.003533 0.368980 0.099689 4.876481 0.603976 0.679929 18.530539 2.401225 -2.792189 8.861763 -0.344366 -5.293287 -19.289908 0.649120 2.866062 -0.238878 -2.110320 9.740006 -15.825902 -18.313357 168.891528 -78.317993 -136.952566 13.388189 -11.833200 -41.719136 -7.608509 -4.487592 -0.907950 -1.986414 -10.934638 -1.055192 -115.267058 -76.836897 85.623440 -11.172148 -7.019099 21.093805 3.152602 -47.192923 -0.809315 -6.552942 70.439161 -12.584064 -9.976489 24.266309 -8.375993 -2.551169 -17.316456 16.720648 -7.823393 -45.044376 -0.290499 34.252198 69.439337 38.093672 -13.397198 2.651741 -5.855578 -0.016025 -0.023654 -0.008833
-209.162594 57.871185 130.070856 178.375934 -28.541365 -1.306343 0.934596 21.856551 2.972326 0.055017 3.002387 0.369506 0.099466 4.879357 0.602802 0.674560 18.529161 2.402565 -2.921855 8.778261 -0.418111 -5.514184 -19.440534 0.567193 2.857857 -0.250634 -2.123111 9.578573 -15.632941 -17.995927 172.810261 -78.989660 -140.767568 12.892901 -11.532499 -41.517346 -7.483587 -4.465614 -0.836155 -1.760057 -10.622124 -1.529062 -112.766369 -78.563738 82.741854 -10.717552 -6.679632 21.044561 3.072538 -47.191426 -0.814917 -6.512050 70.442637 -12.507375 -9.952530 24.250405 -8.414576 -2.566175 -17.314709 16.707243 -7.796405 -45.044057 -0.301169 34.204668 69.449042 38.073113 -13.407055 2.649893 -5.858763 -0.006620 -0.025940 -0.000449
-209.163352 57.875950 130.066495 178.390340 -28.547875 -1.321770 0.923642 21.857336 2.981824 0.055198 2.994941 0.368898 0.097859 4.878452 0.604448 0.668110 18.537396 2.406448 -3.049970 8.688482 -0.499522 -5.744884 -19.598811 0.486032 2.818053 -0.286548 -2.165511 9.452117 -15.412846 -17.629931 177.053196 -79.607806 -144.915511 12.409126 -11.273584 -41.360984 -7.352527 -4.429934 -0.771568 -1.522682 -10.314432 -2.007343 -109.005773 -80.297763 78.560159 -10.237484 -6.395731 21.022820 2.959539 -47.186470 -0.835721 -6.349912 70.452119 -12.279407 -9.957592 24.228883 -8.506997 -2.560405 -17.319538 16.690118 -7.799239 -45.037227 -0.293522 34.187130 69.457343 38.058843 -13.403523 2.652451 -5.858668 -0.007488 -0.031141 0.006010
-209.163843 57.879598 130.063817 178.392489 -28.546124 -1.329391 0.928402 21.837842 2.988362 0.054300 2.999315 0.370996 0.098285 4.874694 0.605100 0.663834 18.547184 2.408013 -3.182687 8.588098 -0.577565 -5.984447 -19.754123 0.402485 2.797348 -0.292980 -2.176025 9.317100 -15.210141 -17.280054 -178.673489 -80.131463 -149.110189 11.997505 -11.074198 -41.241906 -7.222593 -4.383935 -0.707086 -1.300564 -10.012098 -2.484082 -103.476976 -81.955059 72.617951 -9.816002 -6.186749 21.008452 2.888139 -47.189884 -0.852237 -6.210739 70.456430 -12.090808 -9.970632 24.222273 -8.577158 -2.547543 -17.330171 16.676119 -7.797693 -45.040588 -0.280263 34.200617 69.462993 38.065171 -13.416194 2.653094 -5.851412 -0.009617 -0.036723 0.007588
-209.164628 57.882835 130.061314 178.389122 -28.547046 -1.328036 0.936289 21.819781 2.990398 0.055127 2.993966 0.371206 0.099627 4.866376 0.605539 0.660691 18.559722 2.413548 -3.318370 8.483866 -0.662186 -6.232699 -19.897424 0.315282 2.785336 -0.277991 -2.181192 9.178936 -15.013193 -16.924917 -174.747765 -80.526922 -152.963662 11.705355 -10.926497 -41.160518 -7.087123 -4.319133 -0.655228 -1.107696 -9.716786 -2.961068 -95.545094 -83.433646 64.315018 -9.538652 -6.042356 20.988514 2.841831 -47.190816 -0.872924 -6.109053 70.457964 -11.948973 -9.979482 24.224636 -8.626770 -2.543261 -17.342407 16.660398 -7.791485 -45.041317 -0.274877 34.249820 69.464125 38.094397 -13.420930 2.650381 -5.835024 -0.020545 -0.039437 0.007386
-209.163957 57.885351 130.059614 178.385586 -28.547513 -1.330110 0.943491 21.789912 2.995205 0.056126 2.985742 0.371221 0.098931 4.883926 0.605838 0.682596 18.473570 2.420314 -3.480268 8.447245 -0.749542 -6.485592 -20.027697 0.221208 2.726322 -0.184792 -2.182995 9.066784 -14.813662 -16.550052 -171.576088 -80.787788 -156.057371 11.539039 -10.820204 -41.106492 -6.966573 -4.160627 -0.615466 -0.946419 -9.430967 -3.443883 -84.822675 -84.594313 53.288065 -9.429478 -5.931525 20.923433 2.804536 -47.190969 -0.886045 -6.065901 70.455580 -11.861618 -9.985858 24.219508 -8.690912 -2.539780 -17.346003 16.661853 -7.790740 -45.042007 -0.262668 34.265506 69.473193 38.094710 -13.418087 2.645959 -5.817845 -0.031660 -0.040622 0.001643
